<?xml version="1.0" encoding="iso-8859-1"?>
<!-- Generator: Adobe Illustrator 19.0.0, SVG Export Plug-In . SVG Version: 6.00 Build 0)  -->
<svg version="1.1" id="Capa_1" xmlns="http://www.w3.org/2000/svg" xmlns:xlink="http://www.w3.org/1999/xlink" x="0px" y="0px"
	 viewBox="0 0 363.84 363.84" style="enable-background:new 0 0 363.84 363.84;" xml:space="preserve">
<g>
	<g>
		<path d="M285.84,258.52c-7.106-12.745-15.099-24.976-23.92-36.6c-15.44-17.84-27.16-9.6-35.72-3.56
			c-1.129,0.858-2.319,1.634-3.56,2.32c-0.742,0.35-1.52,0.618-2.32,0.8c-0.504,0.07-1.016,0.07-1.52,0
			c-4.304-1.067-8.199-3.376-11.2-6.64c-7.041-7.281-12.935-15.589-17.48-24.64c-4.037-9.286-6.64-19.132-7.72-29.2
			c-0.588-4.404,0.136-8.885,2.08-12.88c0.32-0.411,0.698-0.775,1.12-1.08c0.658-0.503,1.369-0.932,2.12-1.28
			c1.301-0.522,2.638-0.95,4-1.28c10.08-2.72,24-6.44,20-29.72c-3.377-14.196-7.748-28.137-13.08-41.72
			c-2.039-6.462-7.028-11.57-13.44-13.76c-21.363-6.624-44.264,4.056-52.92,24.68c-1.634,4.767-2.511,9.761-2.6,14.8
			c-0.1,4.21,0.114,8.422,0.64,12.6c3.8,30,13.16,68,25.72,94.8c14.574,29.503,33.611,56.581,56.44,80.28
			c2.927,3.086,6.083,5.948,9.44,8.56c3.929,3.159,8.329,5.683,13.04,7.48c21.371,6.561,44.232-4.168,52.84-24.8
			C290.233,271.345,289.505,264.231,285.84,258.52z M276.6,273.72c-2.963,7.172-8.601,12.91-15.72,16
			c-6.91,3.48-14.909,4.112-22.28,1.76c-3.491-1.35-6.755-3.225-9.68-5.56c-2.848-2.264-5.522-4.737-8-7.4
			c-20-21.12-42.04-50.92-54.36-77.2s-21.04-62.4-24.64-91.4c-0.399-3.572-0.532-7.168-0.4-10.76c0.056-3.81,0.703-7.589,1.92-11.2
			c2.906-7.169,8.507-12.913,15.6-16c6.953-3.479,14.989-4.11,22.4-1.76c3.357,1.393,5.901,4.232,6.92,7.72
			c4.884,12.589,8.893,25.499,12,38.64c2.12,12.96-5.88,15.12-11.68,16.68c-2.039,0.482-4.033,1.137-5.96,1.96
			c-1.53,0.707-2.979,1.579-4.32,2.6c-1.312,1-2.471,2.186-3.44,3.52c-3.486,6.052-4.957,13.057-4.2,20
			c1.196,11.584,4.164,22.916,8.8,33.6c5.184,10.392,11.929,19.93,20,28.28c4.894,5.181,11.336,8.634,18.36,9.84
			c1.637,0.103,3.281-0.031,4.88-0.4c1.641-0.373,3.237-0.923,4.76-1.64c1.865-0.952,3.645-2.063,5.32-3.32
			c4.92-3.48,11.68-8.24,20.28,1.72c8.083,10.842,15.407,22.229,21.92,34.08C277.109,266.488,277.667,270.252,276.6,273.72z"/>
	</g>
</g>
<g>
	<g>
		<path d="M340.12,7.24c-4.594-4.625-10.841-7.23-17.36-7.24H70.52c-6.519,0.01-12.766,2.615-17.36,7.24
			c-4.625,4.594-7.23,10.841-7.24,17.36v30.52h-7.68c-5.592,0.004-10.966,2.168-15,6.04l-0.36,0.32
			c-4.098,4.077-6.401,9.62-6.4,15.4c-0.001,5.78,2.302,11.323,6.4,15.4c4.065,4.091,9.593,6.395,15.36,6.4h7.68v61.48h-7.68
			c-5.592,0.004-10.966,2.168-15,6.04l-0.36,0.32c-4.098,4.077-6.401,9.62-6.4,15.4c-0.001,5.78,2.302,11.323,6.4,15.4
			c4.065,4.091,9.593,6.395,15.36,6.4h7.68v61.36h-7.68c-5.592,0.004-10.966,2.168-15,6.04l-0.36,0.32
			c-4.098,4.077-6.401,9.62-6.4,15.4c-0.001,5.78,2.302,11.323,6.4,15.4c4.065,4.091,9.593,6.395,15.36,6.4h7.68v30.6
			c0.01,6.519,2.615,12.766,7.24,17.36c4.594,4.625,10.841,7.23,17.36,7.24h252.24c6.519-0.01,12.766-2.615,17.36-7.24
			c4.625-4.594,7.23-10.841,7.24-17.36V24.6C347.35,18.081,344.745,11.834,340.12,7.24z M38.24,87.04
			c-2.685,0.002-5.26-1.063-7.16-2.96c-1.897-1.9-2.962-4.475-2.96-7.16c0.04-2.629,1.101-5.14,2.96-7l0.24-0.24
			c1.878-1.752,4.352-2.724,6.92-2.72h27c5.58,0.022,10.098,4.54,10.12,10.12c-0.022,5.58-4.54,10.098-10.12,10.12L38.24,87.04z
			 M38.24,192.04c-2.685,0.002-5.26-1.063-7.16-2.96c-1.897-1.9-2.962-4.475-2.96-7.16c-0.002-2.685,1.063-5.26,2.96-7.16l0.24-0.24
			c1.878-1.752,4.352-2.724,6.92-2.72h27c5.596,0,10.138,4.524,10.16,10.12c-0.022,5.58-4.54,10.098-10.12,10.12H38.24z
			 M38.24,296.96c-2.696-0.019-5.274-1.113-7.16-3.04c-1.897-1.9-2.962-4.475-2.96-7.16c-0.002-2.685,1.063-5.26,2.96-7.16
			l0.24-0.24c1.878-1.752,4.352-2.724,6.92-2.72l13.52,0.08h13.52c5.58,0.022,10.098,4.54,10.12,10.12
			c-0.022,5.58-4.54,10.098-10.12,10.12H38.24z M335.72,339.2c0,7.158-5.802,12.96-12.96,12.96H70.52
			c-7.158,0-12.96-5.802-12.96-12.96v-30.56h7.68c12-0.044,21.716-9.76,21.76-21.76c-0.044-12-9.76-21.716-21.76-21.76h-7.68v-61.44
			h7.68c12.015-0.022,21.756-9.745,21.8-21.76c-0.005-5.767-2.308-11.295-6.4-15.36c-4.065-4.091-9.593-6.395-15.36-6.4h-7.72V98.68
			h7.68c12-0.044,21.716-9.76,21.76-21.76c-0.005-5.767-2.309-11.295-6.4-15.36c-4.065-4.091-9.593-6.395-15.36-6.4h-7.68V24.6
			c0-7.158,5.802-12.96,12.96-12.96h252.24c7.158,0,12.96,5.802,12.96,12.96V339.2z"/>
	</g>
</g>
<g>
</g>
<g>
</g>
<g>
</g>
<g>
</g>
<g>
</g>
<g>
</g>
<g>
</g>
<g>
</g>
<g>
</g>
<g>
</g>
<g>
</g>
<g>
</g>
<g>
</g>
<g>
</g>
<g>
</g>
</svg>
