<?xml version="1.0" encoding="iso-8859-1"?>
<!-- Generator: Adobe Illustrator 19.0.0, SVG Export Plug-In . SVG Version: 6.00 Build 0)  -->
<svg version="1.1" id="Capa_1" xmlns="http://www.w3.org/2000/svg" xmlns:xlink="http://www.w3.org/1999/xlink" x="0px" y="0px"
	 viewBox="0 0 342.143 342.143" style="enable-background:new 0 0 342.143 342.143;" xml:space="preserve">
<g>
	<g>
		<path d="M216.058,94.589v-0.04c-24.842-24.833-65.111-24.826-89.944,0.016c-24.833,24.842-24.826,65.111,0.016,89.944
			c24.836,24.827,65.092,24.827,89.928,0C240.661,159.584,240.661,119.513,216.058,94.589z M207.978,176.269
			c-20.291,20.324-53.216,20.35-73.539,0.059c-20.324-20.291-20.35-53.216-0.059-73.539s53.216-20.35,73.539-0.059
			c0.02,0.02,0.039,0.039,0.059,0.059c9.699,9.758,15.136,22.962,15.12,36.72C223.125,153.281,217.688,166.501,207.978,176.269z"/>
	</g>
</g>
<g>
	<g>
		<path d="M224.418,10.629C153.236-18.817,71.66,15.017,42.214,86.2c-12.286,29.7-13.938,62.731-4.676,93.509
			c11.64,38.6,57.56,90.24,90.28,126.88c8.88,9.96,16.76,18.8,22.56,25.84c9.464,11.404,26.373,12.996,37.8,3.56
			c3.08-2.56,22.12-25.04,26.36-29.84c32.84-37.08,78.76-88.92,90.04-126.44C325.214,111.129,290.574,38.062,224.418,10.629z
			 M293.658,176.389c-10.56,35.16-55.64,85.84-87.76,122.12c-5.68,6.44-22.8,26.68-25.08,28.56
			c-6.461,5.359-16.044,4.466-21.403-1.995c-0.012-0.015-0.025-0.03-0.037-0.044c-5.96-7.24-13.92-16-22.84-26.16
			c-32-36-76.96-86.36-88-122.48c-20.39-67.688,17.953-139.089,85.641-159.479c67.688-20.39,139.089,17.953,159.479,85.641
			c3.611,11.987,5.444,24.44,5.44,36.959C299.104,152.002,297.271,164.429,293.658,176.389z"/>
	</g>
</g>
<g>
</g>
<g>
</g>
<g>
</g>
<g>
</g>
<g>
</g>
<g>
</g>
<g>
</g>
<g>
</g>
<g>
</g>
<g>
</g>
<g>
</g>
<g>
</g>
<g>
</g>
<g>
</g>
<g>
</g>
</svg>
